<?xml version="1.0" standalone="no"?>
<!DOCTYPE svg PUBLIC "-//W3C//DTD SVG 20010904//EN"
 "http://www.w3.org/TR/2001/REC-SVG-20010904/DTD/svg10.dtd">
<svg version="1.0" xmlns="http://www.w3.org/2000/svg"
 width="1285.000000pt" height="1285.000000pt" viewBox="0 0 1285.000000 1285.000000"
 preserveAspectRatio="xMidYMid meet">
<metadata>
Created by potrace 1.11, written by Peter Selinger 2001-2013
</metadata>
<g transform="translate(0.000000,1285.000000) scale(0.100000,-0.100000)"
fill="#000000" stroke="none">
<path d="M6088 12841 c-1 -5 -57 -11 -123 -14 -66 -3 -130 -8 -142 -10 -12 -3
-50 -7 -85 -8 -34 -1 -70 -5 -78 -9 -8 -4 -46 -11 -85 -14 -107 -9 -308 -40
-323 -50 -5 -3 -28 -6 -51 -7 -23 -2 -45 -7 -47 -11 -3 -4 -22 -8 -43 -8 -20
0 -41 -4 -46 -9 -6 -5 -26 -11 -45 -14 -52 -7 -252 -56 -272 -67 -10 -6 -28
-10 -40 -10 -12 0 -47 -8 -77 -19 -31 -10 -76 -24 -101 -31 -25 -8 -49 -17
-55 -22 -5 -4 -22 -8 -37 -8 -15 0 -28 -4 -28 -10 0 -5 -13 -10 -28 -10 -15 0
-32 -4 -38 -8 -5 -4 -27 -14 -49 -21 -36 -11 -166 -59 -222 -82 -13 -5 -33
-13 -45 -18 -13 -5 -40 -16 -60 -25 -21 -9 -55 -23 -75 -32 -21 -9 -46 -20
-55 -25 -10 -5 -25 -9 -33 -9 -8 0 -15 -4 -15 -10 0 -5 -4 -10 -10 -10 -5 0
-67 -28 -137 -62 -71 -34 -131 -61 -135 -60 -5 1 -8 -2 -8 -8 0 -5 -9 -10 -20
-10 -11 0 -20 -4 -20 -10 0 -5 -7 -10 -15 -10 -8 0 -15 -4 -15 -10 0 -5 -9
-10 -20 -10 -11 0 -20 -4 -20 -10 0 -5 -7 -10 -15 -10 -8 0 -15 -4 -15 -10 0
-5 -9 -10 -20 -10 -11 0 -20 -4 -20 -10 0 -5 -9 -10 -20 -10 -11 0 -20 -4 -20
-10 0 -5 -5 -10 -10 -10 -6 0 -40 -18 -76 -40 -36 -22 -73 -40 -81 -40 -8 0
-12 -4 -9 -8 2 -4 -10 -14 -27 -22 -18 -8 -41 -22 -51 -32 -11 -10 -26 -18
-33 -18 -7 0 -13 -4 -13 -9 0 -5 -13 -14 -30 -21 -16 -7 -30 -15 -30 -19 0 -3
-13 -12 -28 -19 -16 -6 -38 -21 -50 -32 -12 -11 -26 -20 -32 -20 -5 0 -10 -4
-10 -10 0 -5 -7 -10 -15 -10 -8 0 -15 -4 -15 -10 0 -5 -4 -10 -10 -10 -9 0
-35 -19 -65 -47 -8 -7 -17 -13 -20 -13 -4 0 -24 -13 -45 -30 -21 -16 -42 -30
-47 -30 -5 0 -15 -9 -23 -20 -8 -11 -20 -20 -26 -20 -7 0 -14 -3 -16 -8 -1 -4
-23 -23 -48 -42 -25 -19 -52 -42 -61 -52 -9 -10 -22 -18 -28 -18 -7 0 -9 -4
-6 -10 3 -5 1 -10 -4 -10 -11 0 -38 -20 -77 -57 -13 -13 -26 -23 -29 -23 -3 0
-13 -8 -23 -17 -10 -10 -61 -56 -113 -103 -159 -144 -413 -402 -534 -544 -27
-32 -61 -71 -75 -86 -14 -16 -35 -41 -47 -57 -12 -15 -31 -39 -43 -53 -12 -14
-30 -35 -41 -47 -10 -13 -16 -23 -12 -23 3 0 -3 -8 -14 -17 -11 -10 -44 -52
-73 -93 -30 -41 -59 -78 -65 -82 -5 -4 -6 -8 -1 -8 5 0 -1 -9 -14 -20 -13 -11
-20 -20 -16 -20 4 0 1 -7 -6 -15 -26 -29 -35 -41 -62 -88 -15 -26 -32 -47 -38
-47 -5 0 -6 -4 -3 -10 3 -5 1 -10 -4 -10 -6 0 -11 -7 -11 -15 0 -7 -8 -19 -17
-24 -10 -6 -14 -11 -10 -11 4 0 -3 -15 -17 -33 -15 -19 -26 -37 -26 -41 0 -4
-9 -16 -20 -28 -10 -12 -17 -25 -14 -30 3 -4 -2 -11 -10 -14 -9 -3 -13 -10
-10 -15 3 -5 2 -9 -3 -9 -4 0 -19 -21 -33 -47 -13 -27 -29 -51 -35 -55 -6 -5
-6 -8 0 -8 7 0 7 -3 0 -8 -12 -9 -44 -61 -52 -84 -3 -10 -10 -18 -15 -18 -5 0
-7 -4 -3 -9 3 -5 -2 -17 -11 -25 -8 -9 -12 -16 -7 -16 4 0 3 -4 -3 -8 -5 -4
-28 -43 -50 -87 -22 -44 -45 -89 -51 -100 -5 -11 -18 -34 -27 -52 -9 -17 -16
-38 -16 -47 0 -9 -4 -16 -9 -16 -7 0 -13 -14 -21 -48 -1 -4 -9 -15 -17 -24 -9
-10 -13 -18 -9 -18 4 0 -4 -21 -18 -47 -24 -45 -42 -88 -45 -106 0 -4 -12 -30
-26 -57 -14 -27 -25 -52 -25 -55 1 -3 -8 -26 -20 -51 -11 -26 -20 -52 -20 -59
0 -6 -3 -15 -7 -19 -5 -4 -9 -12 -9 -17 -1 -5 -2 -10 -4 -11 -1 -2 -3 -10 -5
-18 -2 -8 -9 -28 -16 -45 -7 -16 -12 -33 -11 -37 1 -5 -2 -8 -6 -8 -5 0 -9 -6
-10 -12 -1 -20 -9 -50 -22 -83 -7 -16 -14 -41 -17 -55 -2 -13 -9 -30 -15 -37
-6 -7 -8 -13 -4 -13 3 0 -1 -17 -10 -37 -9 -21 -18 -51 -21 -68 -3 -16 -9 -37
-14 -46 -4 -9 -6 -19 -2 -22 3 -4 0 -13 -6 -21 -7 -8 -14 -25 -16 -38 -2 -13
-6 -32 -9 -43 -20 -72 -34 -131 -40 -160 -1 -5 -6 -16 -10 -24 -7 -11 -6 -12
5 -6 11 7 12 6 2 -6 -7 -9 -15 -33 -18 -55 -4 -21 -10 -52 -15 -69 -5 -16 -11
-47 -15 -69 -3 -21 -8 -43 -11 -48 -4 -6 -8 -27 -10 -47 -2 -20 -5 -47 -8 -61
-3 -13 -8 -42 -11 -65 -3 -22 -8 -51 -10 -65 -8 -40 -16 -102 -20 -145 -2 -22
-6 -53 -9 -69 -14 -74 -30 -284 -36 -479 -2 -43 -7 -80 -11 -83 -12 -7 -12
-424 -1 -424 5 0 12 -69 16 -152 4 -84 9 -175 12 -203 2 -27 5 -57 5 -65 1 -8
8 -64 16 -125 8 -60 16 -128 19 -150 7 -65 13 -101 18 -116 3 -8 7 -32 10 -54
10 -78 17 -120 26 -150 5 -16 11 -46 14 -65 11 -75 18 -105 28 -118 6 -7 8
-15 5 -18 -3 -3 1 -27 8 -52 8 -26 16 -60 19 -77 2 -16 12 -54 21 -84 9 -30
18 -63 20 -74 3 -10 7 -27 10 -37 3 -10 8 -27 10 -37 4 -21 131 -408 144 -438
4 -11 16 -38 26 -60 10 -22 19 -44 21 -50 4 -22 98 -244 136 -325 22 -47 56
-119 76 -160 19 -41 39 -76 44 -78 4 -2 8 -12 8 -22 0 -10 4 -20 9 -22 5 -1
11 -10 13 -18 2 -8 5 -17 8 -20 10 -10 54 -105 52 -112 -1 -5 3 -8 9 -8 5 0
17 -17 26 -38 8 -20 18 -39 22 -42 4 -3 20 -28 36 -57 15 -29 35 -60 44 -71
15 -17 25 -34 69 -114 9 -18 19 -35 22 -38 3 -3 19 -25 35 -50 17 -25 33 -47
38 -48 4 -2 5 -8 1 -13 -3 -5 0 -9 7 -9 7 0 9 -3 6 -7 -4 -3 5 -16 18 -29 14
-13 25 -25 25 -28 0 -8 81 -127 103 -151 10 -11 41 -51 69 -90 29 -38 56 -73
62 -77 6 -4 7 -8 2 -8 -5 0 6 -15 25 -34 39 -39 62 -66 56 -66 -3 0 11 -17 30
-38 19 -20 51 -57 71 -82 21 -25 46 -54 57 -66 11 -11 42 -44 68 -72 26 -29
52 -52 58 -52 6 0 7 -5 4 -10 -3 -6 -1 -10 5 -10 6 0 8 -4 5 -10 -3 -5 -2 -10
3 -10 15 0 102 -87 95 -94 -4 -3 -2 -6 4 -6 6 0 52 -41 103 -90 51 -50 94 -90
97 -90 3 0 26 -22 53 -50 27 -27 53 -50 58 -50 6 0 20 -13 32 -30 12 -16 28
-30 36 -30 8 0 12 -4 9 -10 -3 -5 -1 -10 4 -10 11 0 46 -27 88 -67 13 -12 23
-20 23 -17 0 3 6 -1 14 -8 8 -7 12 -16 9 -21 -2 -4 -1 -6 4 -5 12 4 133 -89
126 -96 -4 -3 1 -6 10 -6 9 0 17 -5 17 -11 0 -5 5 -7 10 -4 6 3 12 0 15 -7 3
-8 23 -25 45 -38 22 -14 40 -28 40 -32 0 -5 6 -8 14 -8 8 0 16 -4 18 -8 5 -12
95 -72 108 -72 6 0 8 -5 5 -10 -3 -6 -1 -10 5 -10 10 0 90 -49 100 -61 3 -3
15 -9 28 -13 12 -4 22 -12 22 -17 0 -5 7 -9 15 -9 8 0 15 -4 15 -8 0 -5 12
-15 27 -23 16 -7 47 -26 70 -41 23 -15 46 -28 50 -28 5 0 20 -10 33 -22 14
-13 27 -23 30 -22 3 1 14 -4 25 -11 30 -19 76 -43 108 -56 15 -6 27 -15 27
-21 0 -5 4 -7 9 -3 5 3 16 -2 24 -10 9 -8 23 -15 31 -15 9 0 16 -4 16 -10 0
-5 9 -10 19 -10 11 0 21 -3 23 -7 4 -11 128 -73 144 -73 8 0 14 -4 14 -9 0 -8
37 -24 52 -22 3 0 12 -6 18 -14 7 -8 20 -15 29 -15 9 0 22 -5 29 -12 7 -7 12
-8 12 -3 0 4 8 2 18 -6 9 -8 44 -26 77 -39 33 -13 76 -30 95 -39 19 -8 41 -16
49 -17 7 -1 18 -7 24 -13 6 -6 21 -11 34 -11 13 0 23 -5 23 -12 0 -6 3 -9 6
-5 4 3 19 0 35 -9 16 -8 29 -12 29 -9 0 3 10 -1 22 -9 13 -7 44 -20 71 -27 26
-7 47 -18 47 -23 0 -5 3 -7 6 -3 3 3 43 -7 88 -23 44 -16 93 -31 108 -34 15
-2 33 -8 40 -13 7 -4 24 -9 37 -11 14 -2 32 -7 42 -13 10 -5 29 -9 43 -9 14 0
27 -4 30 -9 3 -5 20 -11 38 -14 18 -3 71 -15 118 -27 47 -12 102 -24 122 -27
23 -3 35 -9 31 -16 -3 -5 -1 -7 4 -4 10 6 47 1 133 -18 22 -5 131 -25 215 -40
17 -3 39 -7 51 -10 11 -2 51 -7 89 -10 38 -4 73 -9 78 -12 5 -3 37 -7 71 -9
33 -2 75 -7 91 -10 17 -3 57 -7 90 -9 33 -3 103 -8 156 -12 53 -5 137 -8 188
-8 50 0 91 -4 91 -8 0 -11 530 5 598 18 19 3 77 8 130 11 54 2 106 7 117 11
11 3 40 7 65 8 25 1 54 5 65 8 17 6 117 18 168 20 9 1 17 4 17 7 0 3 8 6 18 6
17 1 79 10 117 18 38 7 110 20 125 21 8 1 28 5 45 10 16 5 39 9 50 9 11 1 25
5 31 9 7 4 27 9 45 11 19 3 45 8 59 13 14 5 32 9 40 8 8 0 21 5 28 12 7 7 18
10 26 7 7 -3 26 1 42 7 16 7 38 12 49 13 11 1 25 4 31 8 6 4 21 9 35 12 13 3
39 9 57 15 17 5 32 7 32 3 0 -4 4 -2 8 5 4 6 19 13 32 15 14 2 30 7 36 10 6 4
21 9 35 12 13 2 36 9 50 14 15 6 30 8 33 5 3 -4 6 -2 6 4 0 6 16 14 36 18 20
3 52 13 73 22 42 18 63 27 111 43 29 10 90 34 205 81 11 4 41 17 67 28 26 12
52 21 57 21 6 0 11 5 11 10 0 6 7 10 15 10 8 0 23 4 33 9 9 6 102 51 205 102
103 51 190 96 193 101 3 4 14 8 24 8 10 0 24 8 29 17 6 10 11 14 11 10 0 -5
12 0 28 10 15 10 41 25 57 33 17 8 34 21 38 28 5 7 12 10 18 7 5 -4 9 -1 9 4
0 6 4 11 9 11 5 0 46 23 91 50 45 28 85 50 90 50 4 0 11 7 14 16 3 8 10 12 16
9 5 -3 10 -2 10 3 0 5 12 15 28 23 15 8 29 17 32 21 3 3 11 8 19 10 7 2 24 12
36 23 12 11 46 36 74 55 29 19 59 41 66 48 7 6 18 12 24 12 6 0 11 3 11 8 0 4
18 18 40 32 22 14 40 27 40 30 0 3 18 16 40 30 22 14 40 31 40 38 0 7 5 10 10
7 6 -3 10 -1 10 4 0 6 6 11 13 11 7 0 19 9 27 20 8 11 20 20 26 20 7 0 14 3
16 8 2 4 28 27 58 52 30 24 62 53 71 62 9 10 22 18 28 18 7 0 9 4 6 10 -3 5
-1 10 5 10 6 0 39 27 73 60 34 33 68 60 76 60 8 0 11 3 8 6 -4 4 3 16 16 26
66 58 125 117 120 122 -4 3 -1 6 6 6 16 0 42 26 34 34 -4 3 0 6 7 6 7 0 21 10
32 23 11 12 56 62 101 110 136 147 150 162 194 213 47 54 95 113 133 163 14
18 35 44 48 57 13 13 20 24 16 24 -4 0 3 8 14 19 12 10 22 23 22 30 0 6 5 11
10 11 6 0 10 7 10 15 0 8 4 15 9 15 5 0 20 17 32 38 13 20 31 45 41 56 25 27
166 239 166 250 0 5 4 12 9 15 5 3 23 29 41 56 17 28 36 55 41 61 5 6 22 36
36 65 15 30 33 57 39 61 6 5 7 8 1 8 -6 0 -5 3 1 8 6 4 23 29 37 55 15 26 34
59 43 72 9 14 12 25 8 25 -5 0 -4 4 2 8 6 4 26 36 44 72 18 36 38 68 44 72 6
4 8 8 3 8 -4 0 15 44 42 97 27 54 56 116 66 138 10 22 28 65 42 95 49 110 92
209 92 213 0 2 18 54 28 77 3 8 7 20 9 25 2 6 19 55 39 110 20 55 48 136 61
180 14 44 29 89 34 100 7 17 19 63 21 80 0 2 5 19 10 37 23 75 79 288 84 318
6 34 11 58 23 105 6 22 13 57 16 78 4 21 12 71 20 110 8 40 17 90 20 112 3 22
8 51 10 65 5 26 15 104 20 155 2 17 7 53 10 80 4 28 9 64 11 80 2 17 7 71 11
120 3 50 9 119 12 155 8 85 8 608 0 730 -4 52 -9 127 -13 165 -3 39 -8 93 -10
120 -4 49 -15 135 -20 165 -6 32 -18 126 -21 155 -1 17 -3 30 -4 30 -1 0 -3
14 -6 30 -2 17 -9 55 -14 85 -6 30 -12 71 -15 90 -2 19 -4 35 -5 35 -1 0 -3 7
-5 15 -8 32 -26 116 -29 135 -2 11 -7 31 -10 45 -4 14 -8 36 -10 50 -2 14 -6
32 -9 40 -4 13 -29 104 -33 120 -2 13 -16 66 -20 78 -2 7 -4 14 -5 17 -8 26
-50 174 -53 185 -6 24 -57 173 -66 195 -5 11 -21 54 -35 95 -14 41 -28 82 -32
90 -3 8 -5 18 -5 23 1 4 -2 7 -6 7 -5 0 -9 6 -10 13 -1 18 -30 93 -52 138 -11
21 -17 39 -14 39 4 0 0 8 -9 18 -8 9 -16 22 -17 27 -5 21 -12 39 -122 275 -17
36 -36 68 -42 72 -6 4 -8 8 -4 8 3 0 -23 52 -58 116 -35 64 -64 120 -64 124 0
4 -7 13 -15 20 -8 7 -12 16 -9 21 3 5 0 9 -5 9 -6 0 -11 5 -11 11 0 6 -13 30
-30 53 -16 24 -30 50 -32 57 -2 8 -5 16 -8 19 -10 9 -37 55 -38 63 0 5 -10 17
-22 27 -12 10 -20 20 -18 22 5 5 -160 251 -194 289 -10 10 -18 22 -18 25 0 5
-87 123 -100 134 -3 3 -27 34 -55 70 -65 85 -63 83 -94 118 -14 16 -46 54 -71
83 -25 29 -55 63 -67 75 -12 12 -19 25 -16 28 4 3 -1 6 -10 6 -10 0 -17 4 -17
9 0 20 -362 391 -382 391 -6 0 -8 3 -5 7 4 3 -9 17 -28 30 -19 13 -35 28 -35
33 0 6 -4 10 -10 10 -5 0 -22 12 -37 28 -30 29 -75 69 -163 142 -29 25 -59 51
-66 58 -7 6 -17 12 -23 12 -6 0 -11 4 -11 10 0 5 -21 24 -47 41 -27 18 -50 35
-53 38 -3 4 -23 19 -45 36 -22 16 -42 31 -45 34 -3 4 -25 20 -50 36 -25 17
-46 33 -48 38 -2 4 -10 7 -17 7 -7 0 -15 4 -17 8 -4 12 -215 152 -228 152 -5
0 -10 4 -10 8 0 5 -12 15 -27 23 -16 8 -36 22 -45 33 -10 10 -18 16 -18 11 0
-4 -12 0 -26 10 -14 9 -51 31 -83 48 -31 16 -58 33 -61 36 -3 3 -25 17 -50 30
-25 13 -74 39 -110 59 -104 56 -157 82 -169 82 -6 0 -11 5 -11 10 0 6 -9 10
-20 10 -11 0 -20 5 -20 10 0 6 -5 10 -10 10 -11 0 -102 41 -110 49 -3 3 -12 7
-20 9 -8 2 -41 16 -75 31 -104 49 -345 145 -440 176 -27 9 -59 20 -70 24 -41
17 -181 63 -205 67 -24 5 -147 40 -180 52 -8 3 -22 7 -30 8 -8 2 -42 10 -75
19 -33 9 -71 18 -85 21 -14 3 -63 14 -110 25 -106 25 -118 27 -166 34 -21 3
-46 8 -54 11 -8 3 -31 8 -50 10 -19 3 -42 7 -50 9 -8 3 -42 7 -74 10 -33 4
-63 8 -67 11 -4 2 -35 6 -70 9 -35 4 -69 8 -75 10 -7 2 -54 7 -105 10 -52 4
-97 9 -100 11 -3 2 -60 6 -125 10 -65 4 -120 11 -122 15 -5 12 -669 12 -674 0z"/>
</g>
</svg>
